<svg width="650" height="750" viewBox="0 0 650 750" fill="none" xmlns="http://www.w3.org/2000/svg">
<g id="FloorMap">
<g id="Rooms">
<path id="room_st" d="M349.43 300.97H297.624V260.303H349.43V300.97Z" fill="#BEEDE4"/>
<path id="room_ha" d="M417.888 300.97H354.981V249.212H345.73V243.667H303.175V249.212H231.017V178.97H417.888V300.97Z" fill="#BEEDE4"/>
<path id="room_mb" d="M551.104 452.545H423.439V260.303H510.399V328.697H551.104V452.545Z" fill="#BEEDE4"/>
<path id="room_bm" d="M487 711H615V519H528.168V587H487V711Z" fill="#BEEDE4"/>
<path id="room_la" d="M225.466 178.97V249.212H136.656V208.545H131.106V249.212H97.8018V178.97H225.466Z" fill="#BEEDE4"/>
<path id="room_of" d="M97.8018 173.424V34.7878H282.823V173.424H97.8018Z" fill="#BEEDE4"/>
<path id="room_ba" d="M293.923 34.7878V173.424H417.887V34.7878H380.883V73.606H366.081V34.7878H293.923Z" fill="#BEEDE4"/>
<path id="room_br" d="M297.624 306.515V452.545H417.888V306.515H297.624Z" fill="#BEEDE4"/>
<path id="room_ld" d="M97.8018 615.212H343.88V463.636H286.523V260.303H231.017V284.333H225.466V260.303H97.8018V615.212Z" fill="#BEEDE4"/>
</g>
<g id="Background">
<g id="Walls">
<path d="M97.8008 249.212H303V243L346 243.5V249.212H354.98V260.303H97.8008V249.212Z" fill="#919191"/>
<path d="M297.624 260.303L297.624 463.636H286.522V260.303H297.624Z" fill="#919191"/>
<path d="M343.878 463.637H297.622L297.622 452.546H343.878V463.637Z" fill="#919191"/>
<path d="M417.888 178.97L97.8009 178.97L97.8009 173.424L417.888 173.424V178.97Z" fill="#919191"/>
<path d="M225.465 249.212V178.97H231.016V249.212H225.465Z" fill="#919191"/>
<path d="M417.888 453.5V260.303H423.438V453L417.888 453.5Z" fill="#919191"/>
<path d="M349.429 300.97V260.303H354.979V300.97H349.429Z" fill="#919191"/>
<path d="M417.888 306.515H297.624V300.97L417.888 300.97V306.515Z" fill="#919191"/>
<path d="M225.465 284.333V260.303H231.016V284.333H225.465Z" fill="#919191"/>
<path d="M131.103 249.212L131.103 208.546H136.654L136.654 249.212H131.103Z" fill="#919191"/>
<path d="M510.399 260.303L417.888 260.303L417.888 249.212H510.399V260.303Z" fill="#919191"/>
<path d="M417.888 249.212L416.963 75.4549L430.84 75.4549V249.212H417.888Z" fill="#919191"/>
<path d="M366.081 73.6063V34.7881L380.882 34.7881V73.6063H366.081Z" fill="#919191"/>
<path d="M282.822 173.425L282.822 34.7883L293.923 34.7883V173.425H282.822Z" fill="#919191"/>
<path d="M510 329V249H525V329L510 329Z" fill="#919191"/>
<path d="M566 329H524V314L566 314V329Z" fill="#919191"/>
<path d="M551 453V329H566L566 453H551Z" fill="#919191"/>
<path d="M83 615.212H358.682V630H83V615.212Z" fill="#919191"/>
<path d="M430.84 35.5L96.8768 34.7881L96.8768 20.0002H430.84V35.5Z" fill="#919191"/>
<path d="M358.683 452.546V615.212H343.881V452.546H358.683Z" fill="#919191"/>
<path d="M97.802 20.0003L97.802 615.212L83 615.212L83.0003 20.0003L97.802 20.0003Z" fill="#919191"/>
<path d="M566 467L358.683 467.5V452.546L566 453L566 467Z" fill="#919191"/>
<path d="M416.963 75.4549V34.7883L430.84 35.5V75.4549L416.963 75.4549Z" fill="#919191"/>
</g>
<g id="Doors">
<path fill-rule="evenodd" clip-rule="evenodd" d="M385.047 188.045C385.406 196.419 388.451 205.059 394.39 211.652C399.75 217.601 407.446 221.861 417.59 222.763V222.925H420.588C421.303 222.941 422.03 222.941 422.767 222.925H429.59V184.925L423.44 184.925V184.515H384.586V188.045H385.047ZM417.59 188.045V221.758C407.73 220.861 400.3 216.719 395.133 210.983C389.378 204.595 386.406 196.202 386.048 188.045H417.59Z" fill="#E2E2E2"/>
<path d="M266.351 173.907H233.734L234.234 173.889C233.821 162.785 237.943 154.694 244.097 149.371C250.266 144.036 258.507 141.456 266.35 141.456V140.456C258.304 140.456 249.819 143.1 243.443 148.615C237.057 154.139 232.817 162.517 233.235 173.907H232.96V178.907H267.96V173.907H268.022V140.152H266.351V173.907Z" fill="#E2E2E2"/>
<path fill-rule="evenodd" clip-rule="evenodd" d="M386.061 292.079C386.061 284.867 383.687 277.262 378.733 271.545C373.77 265.817 366.242 262.016 356.015 262.391V261.859H350.015V293.859H356.015V293.576H386.279V292.079H386.061ZM356.015 292.079V262.838L356.035 263.39C365.976 263.022 373.215 266.704 377.977 272.199C382.751 277.708 385.061 285.071 385.061 292.079H356.015Z" fill="#E2E2E2"/>
<path d="M275.427 259.479H238.146C237.94 271.852 242.656 280.92 249.615 286.939C256.771 293.128 266.33 296.12 275.424 296.12V297.12C266.126 297.12 256.325 294.064 248.961 287.695C241.775 281.48 236.939 272.132 237.146 259.479H237.033V249.479H277.033V258.479H277.361V297.549H275.427V259.479Z" fill="#E2E2E2"/>
<path d="M226.07 186.187V218.773L226.052 218.274C214.937 218.686 206.838 214.568 201.51 208.419C196.17 202.257 193.588 194.023 193.588 186.188H192.588C192.588 194.227 195.235 202.704 200.755 209.074C206.284 215.455 214.671 219.69 226.07 219.273V219.562H231.07V184.562H226.07V184.516H192.283L192.283 186.187H226.07Z" fill="#E2E2E2"/>
<path d="M423.865 264.763V297.323L423.883 296.85C434.998 297.262 443.097 293.144 448.425 286.995C453.765 280.833 456.347 272.599 456.347 264.764H457.347C457.347 272.803 454.7 281.28 449.18 287.651C443.651 294.031 435.265 298.267 423.865 297.849V298.138H417.865V263.138H423.865V263.092H457.651V264.763H423.865Z" fill="#E2E2E2"/>
<path fill-rule="evenodd" clip-rule="evenodd" d="M396.714 339.497C388.749 339.435 380.175 336.779 373.658 331.322C367.048 325.787 362.576 317.39 363 305.981L363.014 305.982L363.136 301H398.062V306.5H398V339.755H396.715L396.714 339.497ZM396.503 306.5H363.989C363.718 317.348 368.015 325.294 374.299 330.555C380.611 335.841 388.946 338.434 396.707 338.498L396.503 306.5Z" fill="#E2E2E2"/>
<path d="M347.402 140.575C355.448 140.575 363.933 143.21 370.309 148.707C376.695 154.212 380.936 162.565 380.518 173.92H380.792V178.92H345.792V173.92H380.045L379.519 173.9C379.931 162.834 375.811 154.77 369.656 149.464C363.488 144.147 355.246 141.575 347.402 141.575V140.575Z" fill="#E2E2E2"/>
<path d="M347.4 173.919H345.73V140.274H347.4V173.919Z" fill="#E2E2E2"/>
</g>
<g id="Windows">
<path d="M83 532.03H97.8017V607.818H83V532.03Z" fill="#E2E2E2"/>
<path d="M343.88 532.03H358.682V607.818H343.88V532.03Z" fill="#E2E2E2"/>
<path d="M317.977 615.212V630H192.163V615.212H317.977Z" fill="#E2E2E2"/>
<path d="M512.25 452.545V467.333H436.391V452.545H512.25Z" fill="#E2E2E2"/>
<path d="M369.781 467.333V452.545H412.336V467.333H369.781Z" fill="#E2E2E2"/>
<path d="M83 99.4849H97.8017V142H83V99.4849Z" fill="#E2E2E2"/>
<path d="M177.362 615.212V630H134.807L134.807 615.212H177.362Z" fill="#E2E2E2"/>
<path d="M266.172 20.0002V34.7881L219.916 34.7881V20.0002L266.172 20.0002Z" fill="#E2E2E2"/>
<path d="M83 180.818H97.8017V206.697H83V180.818Z" fill="#E2E2E2"/>
<path d="M83 284.333H97.8017V317.606H83V284.333Z" fill="#E2E2E2"/>
<path d="M83 328.697H97.8017V361.97H83V328.697Z" fill="#E2E2E2"/>
<path d="M360.533 20.0002V34.7881L303.177 34.7881V20.0002L360.533 20.0002Z" fill="#E2E2E2"/>
</g>
</g>
<g id="Points">
<g id="points_ld">
<circle id="ld_cp" cx="104" cy="510" r="13.5" fill="#0B8A80" stroke="#0B8A80" stroke-width="3"/>
<circle id="ld_lo" cx="269" cy="532" r="13.5" fill="#0B8A80" stroke="#0B8A80" stroke-width="3"/>
<circle id="ld_ls" cx="180" cy="532" r="13.5" fill="#0B8A80" stroke="#0B8A80" stroke-width="3"/>
<circle id="ld_ta" cx="170" cy="418" r="13.5" fill="#0B8A80" stroke="#0B8A80" stroke-width="3"/>
<circle id="ld_si" cx="190" cy="270" r="13.5" fill="#0B8A80" stroke="#0B8A80" stroke-width="3"/>
<circle id="ld_wz" cx="180" cy="316" r="13.5" fill="#0B8A80" stroke="#0B8A80" stroke-width="3"/>
<circle id="ls_wa" cx="113" cy="270" r="13.5" fill="#0B8A80" stroke="#0B8A80" stroke-width="3"/>
<circle id="ld_ki" cx="104" cy="310" r="13.5" fill="#0B8A80" stroke="#0B8A80" stroke-width="3"/>
<circle id="ld_kb" cx="104" cy="361" r="13.5" fill="#0B8A80" stroke="#0B8A80" stroke-width="3"/>
<circle id="ld_tv" cx="334" cy="480" r="13.5" fill="#0B8A80" stroke="#0B8A80" stroke-width="3"/>
<circle id="ld_re" cx="246" cy="270" r="13.5" fill="#0B8A80" stroke="#0B8A80" stroke-width="3"/>
<circle id="ld_ga" cx="339" cy="517" r="13.5" fill="#0B8A80" stroke="#0B8A80" stroke-width="3"/>
<circle id="ld_ba" cx="185" cy="607" r="13.5" fill="#0B8A80" stroke="#0B8A80" stroke-width="3"/>
<circle id="ld_la" cx="114" cy="597" r="13.5" fill="#0B8A80" stroke="#0B8A80" stroke-width="3"/>
<rect id="ld_nw_rp" x="99" y="433" width="20" height="20" rx="4" fill="#69B731"/>
</g>
<g id="points_la">
<circle id="la_cp" cx="104" cy="188" r="13.5" fill="#0B8A80" stroke="#0B8A80" stroke-width="3"/>
<circle id="la_re" cx="210" cy="218" r="13.5" fill="#0B8A80" stroke="#0B8A80" stroke-width="3"/>
<circle id="la_wd" cx="192" cy="234" r="13.5" fill="#0B8A80" stroke="#0B8A80" stroke-width="3"/>
</g>
<g id="points_of">
<circle id="of_cp" cx="104" cy="89" r="13.5" fill="#0B8A80" stroke="#0B8A80" stroke-width="3"/>
<circle id="of_fd" cx="215" cy="44" r="13.5" fill="#0B8A80" stroke="#0B8A80" stroke-width="3"/>
<circle id="of_sw" cx="210" cy="164" r="13.5" fill="#0B8A80" stroke="#0B8A80" stroke-width="3"/>
<circle id="of_li" cx="185" cy="109" r="13.5" fill="#0B8A80" stroke="#0B8A80" stroke-width="3"/>
<rect id="of_nw_sv" x="256" y="74" width="20" height="20" rx="4" fill="#69B731"/>
</g>
<g id="points_mb">
<circle id="mb_li" cx="487" cy="371" r="13.5" fill="#0B8A80" stroke="#0B8A80" stroke-width="3"/>
<circle id="mb_sw" cx="443" cy="316" r="13.5" fill="#0B8A80" stroke="#0B8A80" stroke-width="3"/>
<circle id="mb_ga" cx="443" cy="448" r="13.5" fill="#0B8A80" stroke="#0B8A80" stroke-width="3"/>
</g>
<g id="points_br">
<circle id="br_sw" cx="356" cy="322" r="13.5" fill="#0B8A80" stroke="#0B8A80" stroke-width="3"/>
<circle id="br_li" cx="349" cy="376" r="13.5" fill="#0B8A80" stroke="#0B8A80" stroke-width="3"/>
<circle id="br_ga" cx="369" cy="448" r="13.5" fill="#0B8A80" stroke="#0B8A80" stroke-width="3"/>
</g>
<g id="points_ba">
<circle id="ba_re" cx="385.561" cy="158.561" r="13.0609" fill="#0B8A80" stroke="#0B8A80" stroke-width="3"/>
<circle id="ba_li" cx="353.561" cy="112.561" r="13.0609" fill="#0B8A80" stroke="#0B8A80" stroke-width="3"/>
<circle id="ba_fd" cx="353.561" cy="49.5609" r="13.0609" fill="#0B8A80" stroke="#0B8A80" stroke-width="3"/>
</g>
<g id="points_st">
<circle id="st_sw" cx="334.561" cy="275.561" r="13.0609" fill="#0B8A80" stroke="#0B8A80" stroke-width="3"/>
</g>
<g id="points_ha">
<circle id="ha_sw" cx="245.561" cy="193.561" r="13.0609" fill="#0B8A80" stroke="#0B8A80" stroke-width="3"/>
<rect id="ha_nw_nw" x="314" y="229" width="20" height="20" rx="4" fill="#69B731"/>
</g>
<g id="points_bm">
</g>
</g>
<path id="Rectangle 69" d="M615 711L615 519L630 519L630 726L472 726L472 711L472 572L513 572L513 504L630 504L630 519L528.5 519L528 587L487 587L487 711L615 711Z" fill="#D3D3D3"/>
<path id="Door" d="M595.64 554.062C587.036 553.809 578.092 550.744 571.291 544.623C564.849 538.825 560.383 530.331 559.928 519.04L559.819 519.04L559.819 504.04L598.819 504.04L598.819 519.04L598.64 519.04L598.64 554.18L595.64 554.18L595.64 554.062ZM595.64 519.04L561.93 519.04C562.382 529.776 566.621 537.73 572.629 543.137C579.019 548.888 587.468 551.808 595.64 552.061L595.64 519.04Z" fill="#E2E2E2"/>
</g>
</svg>
