<svg xmlns="http://www.w3.org/2000/svg" viewBox="0 0 950 650" width="950" height="650" fill="none" role="img">
  <g id="Rooms">
    <path id="Garden" d="M343 545.5V491H492V403H580V564.5L474.5 566V599.5L343 545.5Z" />
    <path id="ourCarPark" d="M254 476.5V369.5H308V476.5H254Z"/>
<path id="Storage" d="M480.635 307H452.608V285H480.635V307Z"/>
<path id="Hallway" d="M517.67 307H483.638V279H478.633V276H455.612V279H416.575V241H517.67V307Z"/>
<path id="MasterBedroom" d="M589.736 389H520.672V285H567.716V322H589.736V389Z"/>
<path id="Laundry" d="M413.572 241V279H365.527V257H362.525V279H344.508V241H413.572Z"/>
<path id="Office" d="M344.508 238V163H444.601V238H344.508Z"/>
<path id="Bathroom" d="M450.606 163V238H517.669V163H497.65V184H489.643V163H450.606Z"/>
<path id="Bedroom" d="M452.608 310V389H517.669V310H452.608Z"/>
<path id="FamilyRoom" d="M344.508 477H477.632V395H446.603V285H416.575V298H413.572V285H344.508V477Z"/>
</g>
</svg>
